HIERARCHY
ROOT root
{
	OFFSET 0.000000 0.000000 0.000000
	CHANNELS 6 Xposition Yposition Zposition Zrotation Yrotation Xrotation
	JOINT lhip
	{
		OFFSET 0.058581 -0.082280 -0.017664
		CHANNELS 3 Zrotation Yrotation Xrotation
		JOINT lknee
		{
			OFFSET 0.043451 -0.386469 0.008037
			CHANNELS 3 Zrotation Yrotation Xrotation
			JOINT lankle
			{
				OFFSET -0.014790 -0.426874 -0.037428
				CHANNELS 3 Zrotation Yrotation Xrotation
				JOINT ltoe
				{
					OFFSET 0.041054 -0.060286 0.122042
					CHANNELS 3 Zrotation Yrotation Xrotation
					End Site
					{
						OFFSET 0.000000 0.000000 0.000000
					}
				}
			}
		}
	}
	JOINT rhip
	{
		OFFSET -0.060310 -0.090513 -0.013543
		CHANNELS 3 Zrotation Yrotation Xrotation
		JOINT rknee
		{
			OFFSET -0.043257 -0.383688 -0.004843
			CHANNELS 3 Zrotation Yrotation Xrotation
			JOINT rankle
			{
				OFFSET 0.019056 -0.420046 -0.034562
				CHANNELS 3 Zrotation Yrotation Xrotation
				JOINT rtoe
				{
					OFFSET -0.034840 -0.062106 0.130323
					CHANNELS 3 Zrotation Yrotation Xrotation
					End Site
					{
						OFFSET 0.000000 0.000000 0.000000
					}
				}
			}
		}
	}
	JOINT lowerback
	{
		OFFSET 0.004439 0.124404 -0.038385
		CHANNELS 3 Zrotation Yrotation Xrotation
		JOINT upperback
		{
			OFFSET 0.004488 0.137956 0.026820
			CHANNELS 3 Zrotation Yrotation Xrotation
			JOINT chest
			{
				OFFSET -0.002265 0.056032 0.002855
				CHANNELS 3 Zrotation Yrotation Xrotation
				JOINT lowerneck
				{
					OFFSET -0.013390 0.211636 -0.033468
					CHANNELS 3 Zrotation Yrotation Xrotation
					JOINT upperneck
					{
						OFFSET 0.010113 0.088937 0.050410
						CHANNELS 3 Zrotation Yrotation Xrotation
						End Site
						{
							OFFSET 0.000000 0.000000 0.000000
						}
					}
				}
				JOINT lclavicle
				{
					OFFSET 0.071702 0.114000 -0.018898
					CHANNELS 3 Zrotation Yrotation Xrotation
					JOINT lshoulder
					{
						OFFSET 0.122921 0.045205 -0.019046
						CHANNELS 3 Zrotation Yrotation Xrotation
						JOINT lelbow
						{
							OFFSET 0.255332 -0.015649 -0.022946
							CHANNELS 3 Zrotation Yrotation Xrotation
							JOINT lwrist
							{
								OFFSET 0.265709 0.012698 -0.007375
								CHANNELS 3 Zrotation Yrotation Xrotation
								End Site
								{
									OFFSET 0.000000 0.000000 0.000000
								}
							}
						}
					}
				}
				JOINT rclavicle
				{
					OFFSET -0.082954 0.112472 -0.023707
					CHANNELS 3 Zrotation Yrotation Xrotation
					JOINT rshoulder
					{
						OFFSET -0.113228 0.046853 -0.008472
						CHANNELS 3 Zrotation Yrotation Xrotation
						JOINT relbow
						{
							OFFSET -0.260127 -0.014369 -0.031269
							CHANNELS 3 Zrotation Yrotation Xrotation
							JOINT rwrist
							{
								OFFSET -0.269108 0.006794 -0.006027
								CHANNELS 3 Zrotation Yrotation Xrotation
								End Site
								{
									OFFSET 0.000000 0.000000 0.000000
								}
							}
						}
					}
				}
			}
		}
	}
}
MOTION
Frames: 11
Frame Time: 0.033333
-0.019989 0.250130 1.349852 -177.508754 1.380140 80.644565 1.476916 -2.970418 -15.149084 -11.834545 -1.107859 60.536710 -0.965393 4.248818 -4.377005 0.000000 -0.000000 0.000000 4.063175 -1.819257 0.962701 1.225147 2.487970 22.876290 -1.108623 -2.853055 -16.494493 0.000000 -0.000000 0.000000 0.355945 3.298072 20.400850 2.283218 -0.490071 -0.896007 -0.025711 0.718732 3.249510 0.576615 1.921501 8.286428 -1.840629 -1.358767 19.863035 -27.896956 1.862890 1.420286 -56.172068 -9.012748 9.619169 9.955418 -33.381013 4.516921 -3.607144 -4.025951 -8.282968 28.471900 3.516119 3.474937 54.179651 6.263129 13.183243 -11.280436 20.158068 -4.449962 5.215324 2.946195 -6.900919 
-0.018223 0.268789 1.348656 -178.158318 0.588340 79.823904 1.432778 -3.293111 -18.395981 -8.925619 2.265841 61.977953 1.044655 6.638284 -5.515615 0.000000 -0.000000 0.000000 3.804450 -2.070976 2.731586 0.784860 3.530650 23.423149 -1.307309 -3.467406 -17.715995 0.000000 -0.000000 0.000000 0.335948 4.817347 20.335103 1.939990 -0.240742 -1.046794 -0.342928 0.818531 3.946709 1.066238 1.183545 8.918452 -1.401142 -1.482474 20.214828 -27.925328 2.360525 1.738802 -55.903265 -8.686194 9.175205 9.682591 -32.512599 4.191295 -3.683392 -3.704343 -8.333648 28.910035 3.348626 3.006682 54.074072 7.030703 13.282242 -11.612240 19.727693 -4.654015 5.151613 2.736372 -6.407588 
-0.017747 0.287804 1.346519 -178.430348 0.204802 79.340995 1.394212 -3.998984 -20.986918 -6.646679 4.248622 60.427614 1.608018 8.494235 -5.371386 0.000000 -0.000000 0.000000 3.782328 -2.036082 4.076984 0.522951 4.280838 24.462352 -1.595314 -3.654011 -19.626674 0.000000 -0.000000 0.000000 0.292488 5.420477 20.299896 1.925615 -0.364127 -1.471515 -0.416525 1.052226 3.957475 1.205614 1.041689 10.061933 -1.547157 -1.198885 20.175757 -27.789208 3.230376 1.966739 -56.318122 -7.407261 8.812767 9.907028 -31.360000 4.117290 -3.820654 -3.077313 -8.407449 28.306439 3.167375 3.274264 54.658120 7.575609 13.264277 -12.270158 20.244354 -5.097315 4.670670 2.490661 -6.946724 
-0.018813 0.306981 1.341582 -178.677124 -0.161715 78.859939 1.113958 -4.671449 -22.405297 -5.978659 4.980107 55.977026 1.559168 8.694039 -3.613474 0.000000 -0.000000 0.000000 3.575377 -1.645034 4.855113 0.681388 4.393382 26.478831 -1.940138 -3.935767 -21.626957 0.000000 -0.000000 0.000000 0.475628 5.451069 20.489348 1.805833 -0.358998 -1.751476 -0.628632 1.322789 3.789645 1.108312 1.234114 10.778880 -1.909133 -1.349966 20.020805 -27.662745 3.941537 2.229329 -56.759417 -6.128089 8.507933 10.071849 -29.839146 3.856070 -4.369380 -3.023146 -8.997801 27.509598 2.797969 3.442611 55.231033 7.900211 13.055741 -13.097639 21.805959 -6.211760 4.498227 2.559789 -8.331351 
-0.018337 0.327297 1.333332 -178.698171 -0.427960 78.089425 0.426815 -4.517278 -22.209265 -6.312704 3.485283 49.190200 0.105176 8.242541 0.620688 0.000000 -0.000000 0.000000 3.523924 -1.552237 5.523146 0.662568 4.179528 29.843721 -2.486763 -4.501140 -24.265846 0.000000 -0.000000 0.000000 0.668422 5.505346 20.657440 1.611935 -0.397782 -1.270086 -0.847784 1.203695 3.559721 1.236938 1.716933 11.031132 -2.153202 -1.494785 19.614826 -27.490929 4.096038 2.305238 -56.453794 -4.747206 8.449510 9.643463 -28.352161 3.821059 -4.656709 -2.590963 -8.687838 27.461904 2.767711 3.296102 55.046869 7.852480 12.983931 -13.706532 24.231103 -7.247273 4.209464 2.944475 -9.210038 
-0.018253 0.347944 1.321878 -178.921219 -0.487824 77.393517 0.077415 -4.078635 -20.729747 -7.490895 0.823372 40.647234 -2.122512 6.819555 5.576729 0.000000 -0.000000 0.000000 3.449795 -1.264118 5.361414 1.000161 3.543595 34.627636 -2.454960 -4.603731 -26.561757 0.000000 -0.000000 0.000000 0.705246 4.951319 20.849008 1.659319 -0.402682 -0.986170 -1.000653 1.372518 3.254190 1.351473 2.667108 11.351077 -2.600201 -1.631632 19.164202 -27.526081 4.557202 1.953224 -56.262802 -3.141483 8.551353 9.236067 -26.705030 4.207809 -4.600732 -2.460767 -8.187200 27.268685 2.701903 3.306746 54.711035 7.875564 13.121677 -14.190212 27.153837 -7.528491 3.656552 3.741791 -9.612096 
-0.018318 0.369531 1.305521 -179.493664 -0.425464 76.704556 -0.352519 -2.840995 -18.215852 -7.600563 -2.247387 31.823410 -4.744297 5.894724 9.631939 0.000000 -0.000000 0.000000 3.249197 -1.242767 4.270776 1.318427 3.409354 42.094010 -1.783805 -3.053265 -28.928931 0.000000 -0.000000 0.000000 0.646025 4.357157 20.580763 1.763426 -0.254132 -0.383907 -1.060306 1.493050 3.063728 1.644812 4.006253 12.023776 -3.028808 -1.651788 18.470588 -27.611033 4.955209 1.777917 -56.002966 -1.671379 8.326157 8.849177 -25.386718 4.055550 -4.995967 -2.161983 -7.512183 27.109512 2.772579 3.478715 54.022234 7.925279 13.249603 -14.606739 30.488493 -7.270980 3.911330 4.372092 -9.182403 
-0.018542 0.392726 1.284483 179.686219 -0.474948 75.753203 -0.588834 -0.884621 -14.788146 -6.390824 -3.204787 23.689496 -7.099253 5.433976 13.495097 0.000000 -0.000000 0.000000 2.796501 -0.874465 3.386137 2.130374 2.569373 49.471835 -0.980245 -2.410474 -30.890868 0.000000 -0.000000 0.000000 0.276246 3.819579 20.161537 1.922368 0.247187 0.497168 -1.031687 1.587675 2.867217 2.125671 4.563674 12.516886 -3.516968 -1.717477 18.277017 -27.420676 5.517113 1.784999 -56.120599 -0.581524 8.149176 8.660045 -24.322593 4.094635 -5.033446 -1.932091 -6.363102 26.840574 2.477313 3.060253 53.719328 8.047210 13.449493 -14.973549 33.165530 -7.100069 4.153648 4.949940 -8.566734 
-0.019189 0.418434 1.258432 179.068470 0.186231 74.771979 -0.707672 0.133072 -11.150398 -3.163205 -0.251925 17.092729 -11.700841 7.848546 17.203286 0.000000 -0.000000 0.000000 2.745910 -0.793555 3.107124 1.482503 0.147625 56.143250 -1.243447 -0.180142 -33.738534 0.000000 -0.000000 0.000000 1.033445 3.763276 18.843250 1.677706 -0.620135 4.126539 -0.576156 1.525169 -0.081627 1.495524 5.267860 14.511676 -2.064308 -1.168643 17.899893 -26.608646 2.819709 0.849456 -57.562879 5.354769 5.430667 8.961246 -24.593480 2.224902 -6.666878 -3.722447 -3.981393 25.838895 4.923937 3.419396 53.487108 5.348461 8.551484 -12.936578 37.298186 -3.597869 1.179894 6.093397 -6.098649 
-0.020606 0.445785 1.229199 179.169223 0.925396 74.157052 -0.598792 1.365118 -7.477007 -2.517047 -0.460662 11.440923 -10.655391 9.275175 20.153842 0.000000 -0.000000 0.000000 2.270158 -1.805395 3.125644 2.714164 -0.772431 62.243115 -3.177585 -0.389326 -35.986740 0.000000 -0.000000 0.000000 1.530722 2.835011 17.393116 1.915583 -0.988086 4.978832 -0.762771 1.410636 -0.199359 1.550299 5.242371 15.676695 -2.134327 -0.240373 17.959384 -26.469396 3.442347 0.809237 -57.617130 7.392443 4.610335 8.473102 -25.256586 3.585651 -7.942432 -3.557767 -4.056563 25.495820 4.766885 3.169464 53.653265 4.856860 7.866110 -13.256994 39.811731 -3.230205 2.729817 6.283645 -6.205303 
-0.021753 0.473135 1.197257 179.171117 1.616399 74.682490 -0.286720 2.365357 -5.170370 -2.353887 -2.165292 7.507917 -10.311780 9.422779 22.526852 0.000000 -0.000000 0.000000 1.942191 -2.102405 2.061381 3.799345 -1.781877 68.685921 -4.374897 -0.014729 -37.554228 0.000000 -0.000000 0.000000 1.753612 2.395251 14.710444 2.562607 -0.892123 5.705625 -0.871521 1.142901 -0.533659 2.120270 5.455400 17.083179 -2.805340 -0.322867 18.117846 -26.619070 4.503083 0.946434 -57.591562 8.581903 4.116017 8.370385 -25.486628 3.997077 -9.037434 -3.506776 -3.268858 25.448350 3.285611 2.850145 53.637598 4.485789 7.403047 -13.544366 41.820252 -2.402898 3.939411 6.398855 -6.060910 
